<?xml version="1.0" encoding="iso-8859-1"?>
<!-- Generator: Adobe Illustrator 21.0.0, SVG Export Plug-In . SVG Version: 6.00 Build 0)  -->
<svg version="1.1" id="Capa_1" xmlns="http://www.w3.org/2000/svg" xmlns:xlink="http://www.w3.org/1999/xlink" x="0px" y="0px"
	 viewBox="0 0 512 512" style="enable-background:new 0 0 512 512;" xml:space="preserve">
<circle style="fill:#64AFFF;" cx="120.982" cy="384.377" r="120.982"/>
<g>
	<path style="fill:#20968D;" d="M0,384.372c0,40.527,19.931,76.396,50.521,98.351c1.645-6.461,6.296-12.302,17.045-14.302
		c28.205-5.248-10.912-27.358-8.551-41.522c2.361-14.163,25.966,7.082,36.59-12.983s-35.41-27.148-53.114-54.294
		c-17.704-27.146,21.245-12.983,34.229-43.256c6.827-15.918,1.904-31.565-4.299-42.825C29.786,292.248,0,334.828,0,384.372z"/>
	<path style="fill:#20968D;" d="M241.949,383.224c-0.478-51.256-32.824-94.887-78.185-112.042
		c-1.307,10.95,3.32,23.012,7.225,29.271c5.203,8.339,26.629,30.687,0.699,39.309s-37.563,6.344-34.534,29.427
		c3.029,23.085,29.504,37.24,17.004,56.84c-12.5,19.601-21.935,59.888-5.138,48.849s19.752-33.549,49.95-56.631
		C216.955,404.501,232.935,394.529,241.949,383.224z"/>
</g>
<path style="fill:#6C9BAA;" d="M296.072,205.764c-48.103,0-89.785-17.505-120.835-52.79c-25.777,13.575-63.765,23.98-119.429,22.944
	c-7.136-0.133-12.815-6.027-12.681-13.163c0.131-7.054,5.892-12.684,12.917-12.684c0.082,0,0.164,0.001,0.246,0.002
	c48.195,0.899,80.938-7.203,103.127-17.991c-6.573-10.068-12.501-21.14-17.769-33.203c-11.624-26.615-7.793-54.24,10.248-73.895
	C166.256,9.34,186.571,2.963,203.656,8.741c10.275,3.475,27.97,14.368,31.043,48.276c2.558,28.232-9.851,59.197-37.521,81.609
	c13.605,14.648,29.42,25.446,47.346,32.288c61.39,23.436,128.505-6.721,129.175-7.028c6.486-2.971,14.155-0.133,17.134,6.344
	c2.98,6.478,0.161,14.141-6.314,17.131C382.293,188.389,343.907,205.764,296.072,205.764z M170.939,42.463
	c-10.914,11.892-13.008,29.114-5.603,46.071c4.74,10.853,10.06,20.763,15.949,29.716c20.971-17.228,29.42-39.579,27.67-58.902
	c-1.297-14.322-6.121-23.598-13.581-26.121C187.041,30.409,177.14,35.707,170.939,42.463z"/>
<path style="fill:#87AFB9;" d="M272.584,448.911c-6.529-11.926-2.155-26.886,9.769-33.415l66.627-36.48l4.15-77.489
	c0.727-13.576,12.34-23.997,25.898-23.265c13.576,0.727,23.993,12.322,23.266,25.898l-4.883,91.181
	c-0.456,8.512-5.283,16.182-12.759,20.276l-78.654,43.066C294.048,465.224,279.099,460.81,272.584,448.911z"/>
<path style="fill:#B4D7DC;" d="M178.652,371.991c-13.135,0-24.041-10.374-24.579-23.618c-0.552-13.584,10.013-25.043,23.598-25.595
	l88.791-3.604l44.147-50.991c8.9-10.279,24.445-11.397,34.724-2.498c10.278,8.899,11.396,24.445,2.498,34.723l-51.118,59.043
	c-4.449,5.138-10.823,8.208-17.613,8.484l-99.432,4.037C179.328,371.985,178.989,371.991,178.652,371.991z"/>
<path style="fill:#C8E6EB;" d="M510.57,253.724l-11.651-90.908c-0.883-6.891-5.195-12.868-11.456-15.879
	c-10.3-4.954-90.836-43.688-100.153-48.168c-5.534-2.661-11.966-2.703-17.533-0.118l-83.889,38.959
	c-5.929,2.753-10.191,8.169-11.475,14.579l-16.673,83.284c-2.224,11.109,4.979,21.918,16.088,24.142
	c11.129,2.225,21.922-4.995,24.143-16.088l14.631-73.085l53.817-24.993l-63.053,131.1l97.923,47.097l60.7-126.209l6.923,54.015
	l-38.234,58.604c-6.191,9.488-3.518,22.2,5.971,28.39c9.486,6.19,22.2,3.518,28.39-5.971l42.362-64.929
	C510.067,263.458,511.19,258.56,510.57,253.724z"/>
<path style="fill:#FF3C3C;" d="M439.857,202.17l-23.059-11.09c-1.624-0.781-2.306-2.729-1.525-4.353l5.437-11.304
	c0.781-1.624,2.729-2.306,4.353-1.525l23.059,11.09c1.624,0.781,2.306,2.729,1.525,4.353l-5.437,11.304
	C443.429,202.267,441.481,202.951,439.857,202.17z"/>
<path style="fill:#E4F2F6;" d="M481.598,32.404c-26.696-12.839-58.745-1.606-71.585,25.089c-6.112,12.707-6.758,26.624-2.891,39.107
	l-8.991,18.695l70.817,34.06l8.992-18.695c12.167-4.771,22.635-13.965,28.746-26.672C519.527,77.293,508.294,45.244,481.598,32.404z
	"/>
<path style="fill:#2A556E;" d="M494.603,87.093c-0.729-11.439-10.046-23.761-24.529-30.726c-14.481-6.965-29.925-6.552-39.315,0.02
	l-15.565-7.486c-1.954,2.654-3.7,5.516-5.18,8.592c-1.494,3.107-2.648,6.286-3.504,9.499l15.551,7.479
	c0.728,11.439,10.046,23.761,24.529,30.726c14.481,6.965,29.925,6.552,39.315-0.02l15.551,7.479
	c1.976-2.674,3.739-5.561,5.233-8.668c1.48-3.077,2.626-6.228,3.48-9.41L494.603,87.093z"/>
<rect x="357.947" y="211.994" transform="matrix(0.4334 -0.9012 0.9012 0.4334 -31.173 483.0669)" style="fill:#E4F2F6;" width="21.272" height="108.66"/>
<g>
</g>
<g>
</g>
<g>
</g>
<g>
</g>
<g>
</g>
<g>
</g>
<g>
</g>
<g>
</g>
<g>
</g>
<g>
</g>
<g>
</g>
<g>
</g>
<g>
</g>
<g>
</g>
<g>
</g>
</svg>